<svg xmlns="http://www.w3.org/2000/svg" viewBox="0 0 300 200" width="300" height="200">
  <rect width="300" height="200" fill="#EE1C25"/>
  <g fill="#FFDE00">
    <polygon points="50,30 58,54 84,54 63,69 71,93 50,78 29,93 37,69 16,54 42,54"/>
    <polygon points="110,20 113,28 121,28 114,33 117,41 110,36 103,41 106,33 99,28 107,28"/>
    <polygon points="130,45 133,53 141,53 134,58 137,66 130,61 123,66 126,58 119,53 127,53"/>
    <polygon points="130,80 133,88 141,88 134,93 137,101 130,96 123,101 126,93 119,88 127,88"/>
    <polygon points="110,105 113,113 121,113 114,118 117,126 110,121 103,126 106,118 99,113 107,113"/>
  </g>
</svg>
